<svg width="1121" height="418" viewBox="0 0 1121 418" fill="none" xmlns="http://www.w3.org/2000/svg">
<rect width="1121" height="418" fill="white"/>
<path d="M65.5181 334.98V329.909H89.4102V334.98H80.5039V359H74.4244V334.98H65.5181ZM100.01 359.426C97.766 359.426 95.8342 358.972 94.2148 358.062C92.605 357.144 91.3645 355.847 90.4933 354.17C89.622 352.485 89.1864 350.491 89.1864 348.19C89.1864 345.946 89.622 343.976 90.4933 342.281C91.3645 340.586 92.5908 339.265 94.1722 338.318C95.7631 337.371 97.6287 336.898 99.7688 336.898C101.208 336.898 102.548 337.13 103.789 337.594C105.039 338.048 106.128 338.735 107.056 339.653C107.993 340.572 108.722 341.727 109.243 343.119C109.764 344.502 110.025 346.121 110.025 347.977V349.639H91.6012V345.889H104.328C104.328 345.018 104.139 344.246 103.76 343.574C103.382 342.902 102.856 342.376 102.184 341.997C101.521 341.609 100.749 341.415 99.8683 341.415C98.9497 341.415 98.1353 341.628 97.4251 342.054C96.7243 342.471 96.1751 343.034 95.7773 343.744C95.3796 344.445 95.176 345.226 95.1665 346.088V349.653C95.1665 350.733 95.3654 351.666 95.7631 352.452C96.1703 353.238 96.7433 353.844 97.4819 354.27C98.2205 354.696 99.0965 354.909 100.11 354.909C100.782 354.909 101.398 354.814 101.956 354.625C102.515 354.436 102.993 354.152 103.391 353.773C103.789 353.394 104.092 352.93 104.3 352.381L109.897 352.75C109.613 354.095 109.03 355.269 108.15 356.273C107.278 357.267 106.151 358.044 104.769 358.602C103.396 359.152 101.81 359.426 100.01 359.426ZM113.973 359V337.182H119.84V340.989H120.067C120.465 339.634 121.132 338.612 122.07 337.92C123.007 337.22 124.087 336.869 125.309 336.869C125.612 336.869 125.938 336.888 126.289 336.926C126.639 336.964 126.947 337.016 127.212 337.082V342.452C126.928 342.366 126.535 342.291 126.033 342.224C125.531 342.158 125.072 342.125 124.655 342.125C123.765 342.125 122.97 342.319 122.269 342.707C121.578 343.086 121.028 343.616 120.621 344.298C120.223 344.98 120.025 345.766 120.025 346.656V359H113.973ZM130.341 359V337.182H136.207V340.989H136.434C136.832 339.634 137.5 338.612 138.437 337.92C139.375 337.22 140.454 336.869 141.676 336.869C141.979 336.869 142.306 336.888 142.656 336.926C143.006 336.964 143.314 337.016 143.579 337.082V342.452C143.295 342.366 142.902 342.291 142.4 342.224C141.898 342.158 141.439 342.125 141.022 342.125C140.132 342.125 139.337 342.319 138.636 342.707C137.945 343.086 137.395 343.616 136.988 344.298C136.591 344.98 136.392 345.766 136.392 346.656V359H130.341ZM152.304 359.412C150.912 359.412 149.672 359.17 148.583 358.688C147.494 358.195 146.632 357.471 145.998 356.514C145.373 355.548 145.06 354.346 145.06 352.906C145.06 351.694 145.283 350.676 145.728 349.852C146.173 349.028 146.779 348.366 147.546 347.864C148.313 347.362 149.184 346.983 150.159 346.727C151.144 346.472 152.176 346.292 153.256 346.188C154.525 346.055 155.548 345.932 156.324 345.818C157.101 345.695 157.664 345.515 158.015 345.278C158.365 345.042 158.54 344.691 158.54 344.227V344.142C158.54 343.242 158.256 342.546 157.688 342.054C157.129 341.562 156.334 341.315 155.301 341.315C154.212 341.315 153.346 341.557 152.702 342.04C152.058 342.513 151.632 343.11 151.424 343.83L145.827 343.375C146.111 342.049 146.67 340.903 147.503 339.938C148.337 338.962 149.411 338.214 150.728 337.693C152.053 337.163 153.587 336.898 155.33 336.898C156.542 336.898 157.702 337.04 158.81 337.324C159.927 337.608 160.917 338.048 161.779 338.645C162.65 339.241 163.337 340.009 163.838 340.946C164.34 341.874 164.591 342.987 164.591 344.284V359H158.853V355.974H158.682C158.332 356.656 157.863 357.258 157.276 357.778C156.689 358.29 155.983 358.692 155.159 358.986C154.336 359.27 153.384 359.412 152.304 359.412ZM154.037 355.236C154.927 355.236 155.713 355.061 156.395 354.71C157.077 354.35 157.612 353.867 158 353.261C158.389 352.655 158.583 351.969 158.583 351.202V348.886C158.393 349.009 158.133 349.123 157.801 349.227C157.48 349.322 157.115 349.412 156.708 349.497C156.301 349.573 155.893 349.644 155.486 349.71C155.079 349.767 154.71 349.819 154.378 349.866C153.668 349.971 153.048 350.136 152.517 350.364C151.987 350.591 151.575 350.899 151.282 351.287C150.988 351.666 150.841 352.139 150.841 352.707C150.841 353.531 151.14 354.161 151.736 354.597C152.342 355.023 153.109 355.236 154.037 355.236ZM181.019 337.182V341.727H167.553V337.182H181.019ZM170.635 359V335.605C170.635 334.024 170.943 332.712 171.559 331.67C172.184 330.629 173.036 329.848 174.115 329.327C175.195 328.806 176.421 328.545 177.794 328.545C178.722 328.545 179.57 328.616 180.337 328.759C181.114 328.901 181.691 329.028 182.07 329.142L180.99 333.688C180.754 333.612 180.46 333.541 180.11 333.474C179.769 333.408 179.418 333.375 179.059 333.375C178.168 333.375 177.548 333.583 177.198 334C176.847 334.407 176.672 334.98 176.672 335.719V359H170.635ZM193.792 359.426C191.586 359.426 189.678 358.957 188.068 358.02C186.467 357.073 185.232 355.757 184.36 354.071C183.489 352.376 183.054 350.411 183.054 348.176C183.054 345.922 183.489 343.953 184.36 342.267C185.232 340.572 186.467 339.256 188.068 338.318C189.678 337.371 191.586 336.898 193.792 336.898C195.999 336.898 197.902 337.371 199.502 338.318C201.112 339.256 202.353 340.572 203.224 342.267C204.095 343.953 204.531 345.922 204.531 348.176C204.531 350.411 204.095 352.376 203.224 354.071C202.353 355.757 201.112 357.073 199.502 358.02C197.902 358.957 195.999 359.426 193.792 359.426ZM193.821 354.739C194.824 354.739 195.663 354.455 196.335 353.886C197.007 353.309 197.514 352.523 197.855 351.528C198.205 350.534 198.38 349.402 198.38 348.134C198.38 346.865 198.205 345.733 197.855 344.739C197.514 343.744 197.007 342.958 196.335 342.381C195.663 341.803 194.824 341.514 193.821 341.514C192.807 341.514 191.955 341.803 191.264 342.381C190.582 342.958 190.066 343.744 189.716 344.739C189.375 345.733 189.204 346.865 189.204 348.134C189.204 349.402 189.375 350.534 189.716 351.528C190.066 352.523 190.582 353.309 191.264 353.886C191.955 354.455 192.807 354.739 193.821 354.739ZM208.466 359V337.182H214.332V340.989H214.559C214.957 339.634 215.625 338.612 216.562 337.92C217.5 337.22 218.579 336.869 219.801 336.869C220.104 336.869 220.431 336.888 220.781 336.926C221.131 336.964 221.439 337.016 221.704 337.082V342.452C221.42 342.366 221.027 342.291 220.525 342.224C220.023 342.158 219.564 342.125 219.147 342.125C218.257 342.125 217.462 342.319 216.761 342.707C216.07 343.086 215.52 343.616 215.113 344.298C214.716 344.98 214.517 345.766 214.517 346.656V359H208.466ZM224.833 359V337.182H230.6V341.031H230.855C231.31 339.753 232.068 338.744 233.128 338.006C234.189 337.267 235.458 336.898 236.935 336.898C238.431 336.898 239.705 337.272 240.756 338.02C241.807 338.759 242.508 339.762 242.858 341.031H243.086C243.531 339.781 244.336 338.782 245.5 338.034C246.675 337.277 248.062 336.898 249.662 336.898C251.698 336.898 253.351 337.546 254.62 338.844C255.898 340.132 256.537 341.959 256.537 344.327V359H250.5V345.52C250.5 344.308 250.178 343.399 249.534 342.793C248.891 342.187 248.086 341.884 247.12 341.884C246.021 341.884 245.164 342.234 244.549 342.935C243.933 343.626 243.625 344.54 243.625 345.676V359H237.759V345.392C237.759 344.322 237.451 343.47 236.836 342.835C236.23 342.201 235.429 341.884 234.435 341.884C233.763 341.884 233.157 342.054 232.617 342.395C232.087 342.726 231.665 343.195 231.353 343.801C231.04 344.398 230.884 345.098 230.884 345.903V359H224.833Z" fill="#6042EA"/>
<g clip-path="url(#clip0_201_7)">
<path d="M116.667 166.667L50 127.778V50L116.667 88.8889V166.667Z" fill="#6042EA"/>
<path d="M194.444 211.111L127.778 172.222V94.4445L194.444 133.333V211.111Z" fill="#6042EA"/>
<path d="M205.556 211.111L272.222 172.222V94.4445L205.556 133.333V211.111Z" fill="#4040B2"/>
<path d="M194.444 300L127.778 261.111V183.333L194.444 222.222V300Z" fill="#6042EA"/>
</g>
<path d="M434.777 359H428.186L438.229 329.909H446.155L456.183 359H449.592L442.305 336.557H442.078L434.777 359ZM434.365 347.565H449.933V352.366H434.365V347.565ZM463.303 359L454.979 329.909H461.698L466.513 350.122H466.755L472.067 329.909H477.82L483.119 350.165H483.374L488.19 329.909H494.908L486.585 359H480.59L475.05 339.98H474.823L469.298 359H463.303ZM513.708 338.276C513.594 337.13 513.107 336.24 512.245 335.605C511.383 334.971 510.214 334.653 508.737 334.653C507.733 334.653 506.885 334.795 506.194 335.08C505.503 335.354 504.972 335.738 504.603 336.23C504.243 336.723 504.063 337.281 504.063 337.906C504.044 338.427 504.153 338.882 504.39 339.27C504.636 339.658 504.972 339.994 505.398 340.278C505.825 340.553 506.317 340.795 506.876 341.003C507.434 341.202 508.031 341.372 508.665 341.514L511.279 342.139C512.548 342.423 513.713 342.802 514.773 343.276C515.834 343.749 516.753 344.331 517.529 345.023C518.306 345.714 518.907 346.528 519.333 347.466C519.769 348.403 519.991 349.478 520.001 350.69C519.991 352.471 519.537 354.014 518.637 355.321C517.747 356.618 516.459 357.627 514.773 358.347C513.097 359.057 511.076 359.412 508.708 359.412C506.36 359.412 504.314 359.052 502.572 358.332C500.839 357.613 499.485 356.547 498.509 355.136C497.543 353.716 497.037 351.959 496.989 349.866H502.941C503.007 350.842 503.287 351.656 503.779 352.31C504.281 352.954 504.949 353.441 505.782 353.773C506.625 354.095 507.576 354.256 508.637 354.256C509.679 354.256 510.583 354.104 511.35 353.801C512.127 353.498 512.728 353.077 513.154 352.537C513.58 351.997 513.793 351.377 513.793 350.676C513.793 350.023 513.599 349.473 513.211 349.028C512.832 348.583 512.273 348.205 511.535 347.892C510.806 347.58 509.911 347.295 508.85 347.04L505.683 346.244C503.23 345.648 501.293 344.715 499.873 343.446C498.452 342.177 497.747 340.468 497.756 338.318C497.747 336.557 498.216 335.018 499.163 333.702C500.119 332.385 501.431 331.358 503.097 330.619C504.764 329.881 506.658 329.511 508.779 329.511C510.938 329.511 512.823 329.881 514.433 330.619C516.052 331.358 517.311 332.385 518.211 333.702C519.111 335.018 519.575 336.543 519.603 338.276H513.708ZM538.651 329.909L545.683 352.011H545.952L552.998 329.909H559.816L549.788 359H541.862L531.819 329.909H538.651ZM563.317 359V329.909H574.795C577.001 329.909 578.881 330.33 580.434 331.173C581.987 332.007 583.171 333.167 583.985 334.653C584.809 336.131 585.221 337.835 585.221 339.767C585.221 341.699 584.804 343.403 583.971 344.881C583.138 346.358 581.93 347.509 580.349 348.332C578.777 349.156 576.873 349.568 574.638 349.568H567.323V344.639H573.644C574.828 344.639 575.803 344.436 576.57 344.028C577.347 343.612 577.924 343.039 578.303 342.31C578.692 341.571 578.886 340.723 578.886 339.767C578.886 338.801 578.692 337.958 578.303 337.239C577.924 336.509 577.347 335.946 576.57 335.548C575.794 335.141 574.809 334.938 573.616 334.938H569.468V359H563.317ZM614.884 340.094H608.662C608.548 339.289 608.316 338.574 607.966 337.949C607.616 337.314 607.166 336.775 606.616 336.33C606.067 335.884 605.433 335.544 604.713 335.307C604.003 335.07 603.231 334.952 602.398 334.952C600.892 334.952 599.58 335.326 598.463 336.074C597.346 336.812 596.479 337.892 595.864 339.312C595.248 340.723 594.94 342.437 594.94 344.455C594.94 346.528 595.248 348.271 595.864 349.682C596.489 351.093 597.36 352.158 598.477 352.878C599.595 353.598 600.887 353.957 602.355 353.957C603.179 353.957 603.941 353.848 604.642 353.631C605.352 353.413 605.982 353.096 606.531 352.679C607.08 352.253 607.535 351.737 607.895 351.131C608.264 350.525 608.52 349.833 608.662 349.057L614.884 349.085C614.723 350.42 614.32 351.708 613.676 352.949C613.042 354.18 612.185 355.283 611.105 356.259C610.035 357.224 608.757 357.991 607.27 358.56C605.793 359.118 604.121 359.398 602.256 359.398C599.661 359.398 597.341 358.811 595.295 357.636C593.259 356.462 591.65 354.762 590.466 352.537C589.292 350.312 588.705 347.617 588.705 344.455C588.705 341.282 589.301 338.583 590.494 336.358C591.688 334.133 593.307 332.437 595.352 331.273C597.398 330.098 599.699 329.511 602.256 329.511C603.941 329.511 605.504 329.748 606.943 330.222C608.392 330.695 609.675 331.386 610.793 332.295C611.91 333.195 612.819 334.298 613.52 335.605C614.23 336.912 614.685 338.408 614.884 340.094Z" fill="#F68633"/>
<g clip-path="url(#clip1_201_7)">
<path d="M373.823 155.461C373.823 154.449 373.823 153.503 373.823 152.492C373.788 129.016 381.802 106.24 396.523 87.9777C411.244 69.7153 431.779 57.0746 454.69 52.1718C477.601 47.269 501.497 50.4017 522.378 61.0455C543.259 71.6892 559.858 89.198 569.396 110.641C577.056 105.41 585.978 102.335 595.229 101.738C604.479 101.14 613.721 103.042 621.988 107.244C630.255 111.446 637.246 117.795 642.229 125.628C647.213 133.461 650.007 142.49 650.32 151.775C690.652 155.232 721.935 194.442 721.935 225.659V232.444C721.935 266.043 685.704 300 641.043 300H402.892C358.23 300 322 266.043 322 232.444V225.692C322 199.824 343.549 164.17 373.823 155.493V155.461Z" fill="#F68633"/>
<path d="M426.167 168.215H442.085L458.003 243.241H458.23L475.092 168.215H491.271L467.443 262.356H448.367L426.167 168.215ZM500.646 168.215H530.398C548.465 168.215 556.44 179.567 556.44 195.648C556.44 212.546 546.674 223.473 528.934 223.473H515.815V262.389H500.809V168.215H500.646ZM515.783 212.122H526.46C534.435 212.122 541.434 207.783 541.434 195.812C541.434 185.667 537.397 179.502 525.353 179.502H515.75V212.122H515.783ZM626.98 228.627V230.585C626.98 247.612 620.145 264.216 598.042 264.216C574.344 264.216 566.987 248.917 566.987 215.286C566.987 181.654 574.376 166.356 598.172 166.356C624.897 166.356 626.46 186.123 626.46 195.909V197.638H611.486V196.073C611.486 187.363 608.849 177.349 598.042 177.74C587.234 178.132 581.993 184.59 581.993 214.927C581.993 245.264 587.007 252.897 598.042 252.897C610.542 252.897 612.006 238.903 612.006 230.063V228.432H626.98V228.627Z" fill="white"/>
</g>
<path d="M793.904 339.312C793.705 338.621 793.426 338.01 793.066 337.48C792.706 336.94 792.266 336.486 791.745 336.116C791.234 335.738 790.647 335.449 789.984 335.25C789.33 335.051 788.606 334.952 787.81 334.952C786.324 334.952 785.017 335.321 783.89 336.06C782.772 336.798 781.901 337.873 781.276 339.284C780.651 340.686 780.339 342.4 780.339 344.426C780.339 346.453 780.647 348.176 781.262 349.597C781.878 351.017 782.749 352.101 783.876 352.849C785.003 353.588 786.333 353.957 787.867 353.957C789.259 353.957 790.448 353.711 791.433 353.219C792.427 352.717 793.184 352.011 793.705 351.102C794.236 350.193 794.501 349.118 794.501 347.878L795.751 348.062H788.251V343.432H800.424V347.097C800.424 349.653 799.884 351.85 798.805 353.688C797.725 355.515 796.238 356.926 794.344 357.92C792.451 358.905 790.282 359.398 787.839 359.398C785.112 359.398 782.716 358.796 780.651 357.594C778.587 356.382 776.977 354.663 775.822 352.438C774.676 350.203 774.103 347.551 774.103 344.483C774.103 342.125 774.444 340.023 775.126 338.176C775.817 336.32 776.783 334.748 778.023 333.46C779.264 332.172 780.708 331.192 782.356 330.52C784.004 329.848 785.789 329.511 787.711 329.511C789.359 329.511 790.893 329.753 792.313 330.236C793.734 330.709 794.993 331.382 796.092 332.253C797.2 333.124 798.104 334.161 798.805 335.364C799.505 336.557 799.955 337.873 800.154 339.312H793.904ZM806.298 359V337.182H812.349V359H806.298ZM809.337 334.369C808.438 334.369 807.666 334.071 807.022 333.474C806.388 332.868 806.07 332.144 806.07 331.301C806.07 330.468 806.388 329.753 807.022 329.156C807.666 328.55 808.438 328.247 809.337 328.247C810.237 328.247 811.004 328.55 811.638 329.156C812.282 329.753 812.604 330.468 812.604 331.301C812.604 332.144 812.282 332.868 811.638 333.474C811.004 334.071 810.237 334.369 809.337 334.369ZM828.801 337.182V341.727H815.662V337.182H828.801ZM818.645 331.955H824.696V352.295C824.696 352.854 824.781 353.29 824.952 353.602C825.122 353.905 825.359 354.118 825.662 354.241C825.974 354.365 826.334 354.426 826.741 354.426C827.026 354.426 827.31 354.402 827.594 354.355C827.878 354.298 828.096 354.256 828.247 354.227L829.199 358.73C828.896 358.825 828.47 358.934 827.92 359.057C827.371 359.189 826.704 359.27 825.918 359.298C824.459 359.355 823.181 359.161 822.082 358.716C820.993 358.271 820.146 357.58 819.54 356.642C818.934 355.705 818.635 354.521 818.645 353.091V331.955ZM833.325 359V329.909H839.476V341.912H851.962V329.909H858.098V359H851.962V346.983H839.476V359H833.325ZM877.047 349.71V337.182H883.098V359H877.288V355.037H877.061C876.569 356.315 875.75 357.343 874.604 358.119C873.467 358.896 872.08 359.284 870.442 359.284C868.983 359.284 867.7 358.953 866.592 358.29C865.484 357.627 864.618 356.685 863.993 355.463C863.377 354.241 863.065 352.778 863.055 351.074V337.182H869.107V349.994C869.116 351.282 869.462 352.3 870.143 353.048C870.825 353.796 871.739 354.17 872.885 354.17C873.614 354.17 874.296 354.005 874.93 353.673C875.565 353.332 876.076 352.83 876.464 352.168C876.862 351.505 877.056 350.686 877.047 349.71ZM888.052 359V329.909H894.103V340.847H894.288C894.553 340.259 894.936 339.663 895.438 339.057C895.95 338.441 896.612 337.93 897.427 337.523C898.251 337.106 899.273 336.898 900.495 336.898C902.086 336.898 903.554 337.314 904.898 338.148C906.243 338.972 907.318 340.217 908.123 341.884C908.928 343.541 909.33 345.619 909.33 348.119C909.33 350.553 908.937 352.608 908.151 354.284C907.375 355.951 906.314 357.215 904.969 358.077C903.634 358.929 902.138 359.355 900.481 359.355C899.307 359.355 898.308 359.161 897.484 358.773C896.669 358.384 896.002 357.897 895.481 357.31C894.96 356.713 894.562 356.112 894.288 355.506H894.018V359H888.052ZM893.975 348.091C893.975 349.388 894.155 350.52 894.515 351.486C894.875 352.452 895.396 353.205 896.077 353.744C896.759 354.275 897.588 354.54 898.563 354.54C899.548 354.54 900.381 354.27 901.063 353.73C901.745 353.181 902.261 352.423 902.612 351.457C902.971 350.482 903.151 349.36 903.151 348.091C903.151 346.831 902.976 345.723 902.626 344.767C902.275 343.811 901.759 343.062 901.077 342.523C900.396 341.983 899.558 341.713 898.563 341.713C897.578 341.713 896.745 341.973 896.063 342.494C895.391 343.015 894.875 343.754 894.515 344.71C894.155 345.667 893.975 346.794 893.975 348.091ZM927.754 359H921.163L931.205 329.909H939.131L949.16 359H942.569L935.282 336.557H935.055L927.754 359ZM927.342 347.565H942.91V352.366H927.342V347.565ZM961.39 359.426C959.155 359.426 957.233 358.953 955.623 358.006C954.022 357.049 952.791 355.723 951.93 354.028C951.077 352.333 950.651 350.383 950.651 348.176C950.651 345.941 951.082 343.981 951.944 342.295C952.815 340.6 954.051 339.279 955.651 338.332C957.252 337.376 959.155 336.898 961.362 336.898C963.265 336.898 964.932 337.243 966.362 337.935C967.791 338.626 968.923 339.597 969.756 340.847C970.59 342.097 971.049 343.564 971.134 345.25H965.424C965.263 344.161 964.837 343.285 964.146 342.622C963.464 341.95 962.569 341.614 961.461 341.614C960.523 341.614 959.704 341.869 959.004 342.381C958.312 342.883 957.772 343.616 957.384 344.582C956.996 345.548 956.802 346.718 956.802 348.091C956.802 349.483 956.991 350.667 957.37 351.642C957.758 352.617 958.303 353.361 959.004 353.872C959.704 354.384 960.523 354.639 961.461 354.639C962.152 354.639 962.772 354.497 963.322 354.213C963.88 353.929 964.34 353.517 964.7 352.977C965.069 352.428 965.31 351.77 965.424 351.003H971.134C971.04 352.67 970.585 354.137 969.771 355.406C968.966 356.666 967.853 357.651 966.433 358.361C965.012 359.071 963.331 359.426 961.39 359.426ZM986.614 337.182V341.727H973.474V337.182H986.614ZM976.457 331.955H982.509V352.295C982.509 352.854 982.594 353.29 982.764 353.602C982.935 353.905 983.171 354.118 983.474 354.241C983.787 354.365 984.147 354.426 984.554 354.426C984.838 354.426 985.122 354.402 985.406 354.355C985.69 354.298 985.908 354.256 986.06 354.227L987.011 358.73C986.708 358.825 986.282 358.934 985.733 359.057C985.184 359.189 984.516 359.27 983.73 359.298C982.272 359.355 980.993 359.161 979.895 358.716C978.806 358.271 977.958 357.58 977.352 356.642C976.746 355.705 976.448 354.521 976.457 353.091V331.955ZM990.555 359V337.182H996.607V359H990.555ZM993.595 334.369C992.696 334.369 991.924 334.071 991.28 333.474C990.645 332.868 990.328 332.144 990.328 331.301C990.328 330.468 990.645 329.753 991.28 329.156C991.924 328.55 992.696 328.247 993.595 328.247C994.495 328.247 995.262 328.55 995.896 329.156C996.54 329.753 996.862 330.468 996.862 331.301C996.862 332.144 996.54 332.868 995.896 333.474C995.262 334.071 994.495 334.369 993.595 334.369ZM1011.31 359.426C1009.11 359.426 1007.2 358.957 1005.59 358.02C1003.99 357.073 1002.75 355.757 1001.88 354.071C1001.01 352.376 1000.57 350.411 1000.57 348.176C1000.57 345.922 1001.01 343.953 1001.88 342.267C1002.75 340.572 1003.99 339.256 1005.59 338.318C1007.2 337.371 1009.11 336.898 1011.31 336.898C1013.52 336.898 1015.42 337.371 1017.02 338.318C1018.63 339.256 1019.87 340.572 1020.74 342.267C1021.61 343.953 1022.05 345.922 1022.05 348.176C1022.05 350.411 1021.61 352.376 1020.74 354.071C1019.87 355.757 1018.63 357.073 1017.02 358.02C1015.42 358.957 1013.52 359.426 1011.31 359.426ZM1011.34 354.739C1012.34 354.739 1013.18 354.455 1013.85 353.886C1014.53 353.309 1015.03 352.523 1015.37 351.528C1015.72 350.534 1015.9 349.402 1015.9 348.134C1015.9 346.865 1015.72 345.733 1015.37 344.739C1015.03 343.744 1014.53 342.958 1013.85 342.381C1013.18 341.803 1012.34 341.514 1011.34 341.514C1010.33 341.514 1009.47 341.803 1008.78 342.381C1008.1 342.958 1007.59 343.744 1007.24 344.739C1006.89 345.733 1006.72 346.865 1006.72 348.134C1006.72 349.402 1006.89 350.534 1007.24 351.528C1007.59 352.523 1008.1 353.309 1008.78 353.886C1009.47 354.455 1010.33 354.739 1011.34 354.739ZM1032.04 346.386V359H1025.99V337.182H1031.75V341.031H1032.01C1032.49 339.762 1033.3 338.759 1034.44 338.02C1035.57 337.272 1036.95 336.898 1038.57 336.898C1040.09 336.898 1041.41 337.229 1042.53 337.892C1043.66 338.555 1044.54 339.502 1045.16 340.733C1045.79 341.955 1046.1 343.413 1046.1 345.108V359H1040.05V346.188C1040.06 344.852 1039.72 343.811 1039.02 343.062C1038.33 342.305 1037.38 341.926 1036.17 341.926C1035.36 341.926 1034.64 342.101 1034.01 342.452C1033.4 342.802 1032.91 343.313 1032.56 343.986C1032.22 344.649 1032.05 345.449 1032.04 346.386ZM1069.02 343.403L1063.48 343.744C1063.39 343.271 1063.18 342.845 1062.87 342.466C1062.56 342.078 1062.15 341.77 1061.63 341.543C1061.13 341.306 1060.53 341.188 1059.83 341.188C1058.89 341.188 1058.1 341.386 1057.46 341.784C1056.81 342.172 1056.49 342.693 1056.49 343.347C1056.49 343.867 1056.7 344.308 1057.12 344.668C1057.53 345.027 1058.25 345.316 1059.26 345.534L1063.21 346.33C1065.33 346.765 1066.91 347.466 1067.96 348.432C1069 349.398 1069.52 350.667 1069.52 352.239C1069.52 353.669 1069.1 354.923 1068.25 356.003C1067.42 357.082 1066.28 357.925 1064.82 358.531C1063.37 359.128 1061.7 359.426 1059.8 359.426C1056.91 359.426 1054.61 358.825 1052.9 357.622C1051.19 356.41 1050.2 354.762 1049.9 352.679L1055.85 352.366C1056.03 353.247 1056.47 353.92 1057.16 354.384C1057.85 354.838 1058.74 355.065 1059.82 355.065C1060.88 355.065 1061.73 354.862 1062.37 354.455C1063.03 354.038 1063.36 353.503 1063.37 352.849C1063.36 352.3 1063.13 351.85 1062.67 351.5C1062.22 351.14 1061.52 350.866 1060.57 350.676L1056.79 349.923C1054.66 349.497 1053.07 348.759 1052.03 347.707C1051 346.656 1050.48 345.316 1050.48 343.688C1050.48 342.286 1050.86 341.079 1051.62 340.065C1052.39 339.052 1053.46 338.271 1054.85 337.722C1056.24 337.172 1057.87 336.898 1059.73 336.898C1062.49 336.898 1064.66 337.48 1066.24 338.645C1067.83 339.81 1068.76 341.396 1069.02 343.403Z" fill="#2671E5"/>
<g clip-path="url(#clip2_201_7)">
<path d="M971.873 49.946H869.986C829.076 49.946 795.912 83.1101 795.912 124.02V225.907C795.912 266.817 829.076 299.981 869.986 299.981H971.873C1012.78 299.981 1045.95 266.817 1045.95 225.907V124.02C1045.95 83.1101 1012.78 49.946 971.873 49.946Z" fill="#2671E5"/>
<path d="M988.634 165.576C986.893 163.002 984.58 160.866 981.876 159.335C979.172 157.804 976.15 156.919 973.047 156.751C969.944 156.583 966.844 157.135 963.99 158.365C961.137 159.595 958.606 161.469 956.597 163.84C955.233 165.309 954.084 166.965 953.187 168.759C952.298 170.486 951.609 172.309 951.131 174.192H938.749C938.476 173.735 938.277 173.237 938.161 172.718C936.476 166.102 932.348 161.372 926.086 158.765C914.032 153.745 900.949 160.404 897.578 173.099C897.356 173.933 897.521 174.877 896.11 175.071C890.266 175.874 883.67 172.531 880.901 167.197C879.033 163.6 879.132 163.287 883.146 162.783C899.808 160.69 913.414 143.773 907.654 124.153C903.481 109.939 887.903 100.713 873.312 103.736C859.557 106.585 849.845 118.055 849.125 132.299C848.463 145.403 857.527 157.927 870.687 161.82C872.67 162.407 873.118 163.284 873.109 165.188C873.041 178.473 872.98 191.761 873.125 205.045C873.26 217.332 882.273 227.335 894.349 228.631C896.625 228.874 897.395 229.678 897.966 231.79C900.215 240.12 907.695 246.045 916.407 246.705C920.585 247.041 924.767 246.101 928.4 244.011C932.034 241.921 934.948 238.778 936.759 234.997C942.083 223.584 936.809 210.551 925.119 206.232C913.541 201.954 900.94 208.585 897.744 220.807C897.197 222.898 896.279 223.026 894.531 222.737C885.558 221.252 879.328 214.102 879.077 204.776C878.976 201.031 879.053 197.281 879.052 193.534C879.05 187.598 879.052 181.66 879.052 175.04C881.941 177.255 884.374 178.921 887.236 179.891C890.081 180.8 893.069 181.179 896.051 181.01C897.488 180.96 897.368 182.041 897.593 182.888C899.135 188.676 902.384 193.191 907.621 196.167C910.398 197.766 913.508 198.703 916.706 198.902C919.905 199.102 923.106 198.559 926.061 197.317C929.015 196.075 931.642 194.167 933.737 191.741C935.832 189.316 937.338 186.439 938.138 183.336C938.255 182.825 938.456 182.337 938.735 181.892H951.323C951.403 182.573 951.546 183.245 951.75 183.9C954.35 193.262 962.936 199.23 972.753 198.897C980.628 198.629 989.503 193.67 992.217 182.589C992.916 179.665 992.958 176.622 992.338 173.68C991.719 170.737 990.454 167.969 988.634 165.576V165.576ZM917.99 211.007C919.953 210.988 921.9 211.361 923.717 212.102C925.534 212.844 927.186 213.94 928.575 215.327C929.964 216.714 931.063 218.364 931.807 220.18C932.552 221.996 932.928 223.942 932.912 225.905C932.921 228.863 932.052 231.758 930.414 234.222C928.777 236.686 926.445 238.608 923.714 239.745C920.983 240.883 917.976 241.184 915.074 240.611C912.171 240.038 909.504 238.616 907.411 236.526C905.317 234.436 903.891 231.771 903.313 228.87C902.735 225.968 903.032 222.961 904.165 220.228C905.298 217.495 907.216 215.16 909.677 213.518C912.139 211.877 915.032 211.003 917.99 211.007ZM855.279 133.002C855.33 126.703 857.871 120.681 862.347 116.248C866.823 111.816 872.87 109.335 879.169 109.346C885.468 109.357 891.507 111.859 895.967 116.307C900.427 120.755 902.947 126.787 902.976 133.085C902.99 136.23 902.383 139.346 901.188 142.255C899.993 145.164 898.235 147.808 896.015 150.034C893.794 152.261 891.156 154.027 888.25 155.23C885.345 156.433 882.23 157.049 879.086 157.043C875.941 157.038 872.829 156.411 869.927 155.198C867.026 153.985 864.394 152.21 862.181 149.975C859.968 147.741 858.22 145.091 857.035 142.178C855.851 139.265 855.254 136.147 855.279 133.002ZM917.888 192.922C914.947 192.895 912.079 191.998 909.648 190.343C907.216 188.687 905.329 186.349 904.226 183.622C903.122 180.896 902.851 177.903 903.447 175.023C904.043 172.142 905.479 169.503 907.573 167.438C909.668 165.373 912.327 163.974 915.216 163.42C918.105 162.865 921.093 163.178 923.803 164.32C926.514 165.462 928.826 167.382 930.446 169.837C932.067 172.291 932.924 175.171 932.909 178.113C932.901 180.073 932.506 182.013 931.746 183.82C930.985 185.627 929.875 187.266 928.479 188.642C927.083 190.019 925.429 191.106 923.611 191.84C921.793 192.575 919.848 192.942 917.888 192.922ZM965.24 191.449C961.919 189.857 959.3 187.099 957.882 183.701C956.464 180.303 956.346 176.502 957.55 173.022C958.754 169.542 961.196 166.627 964.411 164.832C967.626 163.037 971.389 162.487 974.983 163.288C978.577 164.089 981.751 166.184 983.9 169.174C986.049 172.165 987.022 175.841 986.635 179.503C986.248 183.164 984.527 186.556 981.8 189.03C979.073 191.505 975.531 192.89 971.849 192.921C971.71 192.921 971.573 192.916 971.434 192.912C969.292 192.846 967.185 192.348 965.24 191.448V191.449Z" fill="white"/>
<path d="M891.392 128.11C886.496 124.878 881.531 121.75 876.498 118.726C872.06 116.045 867.28 118.751 867.155 123.944C867.081 127.005 867.141 130.069 867.145 133.132C867.149 136.28 867.09 139.43 867.163 142.576C867.276 147.457 871.961 150.259 876.146 147.823C881.288 144.829 886.352 141.701 891.336 138.438C895.485 135.725 895.495 130.816 891.393 128.109L891.392 128.11ZM887.315 133.943C883.042 136.584 878.77 139.228 874.501 141.875C873.76 142.334 873.187 142.379 873.185 141.278C873.176 135.6 873.181 129.923 873.181 123.707C878.188 126.853 882.772 129.729 887.349 132.614C888.042 133.051 888.022 133.506 887.315 133.943ZM911.938 228.815C913.75 228.697 914.855 227.673 914.924 225.972C914.967 225.589 914.927 225.202 914.807 224.836C914.686 224.47 914.488 224.134 914.225 223.852C913.963 223.569 913.642 223.347 913.286 223.2C912.93 223.053 912.546 222.985 912.161 223C910.264 222.927 909.126 223.985 909.099 225.907C909.073 227.743 910.237 228.591 911.938 228.815ZM924.075 228.779C925.828 228.52 926.951 227.579 926.857 225.746C926.765 223.944 925.622 222.919 923.824 223.003C922.041 223.086 920.946 224.191 921.021 225.99C921.096 227.79 922.286 228.674 924.075 228.779ZM979.581 176.359C980.264 175.677 980.815 174.944 980.74 173.832C980.776 173.286 980.639 172.743 980.349 172.278C980.059 171.814 979.631 171.452 979.124 171.245C978.593 170.955 977.981 170.85 977.384 170.947C976.787 171.044 976.239 171.337 975.827 171.779C974.243 173.202 972.736 174.708 971.313 176.292C969.7 178.187 968.371 179.077 966.395 176.616C965.232 175.169 963.474 175.198 962.124 176.61C960.855 177.936 961.06 179.443 962.231 180.736C963.487 182.123 964.828 183.439 966.194 184.718C968.086 186.488 969.372 186.491 971.261 184.655C974.07 181.927 976.808 179.125 979.581 176.359ZM925.44 171.306C924.926 170.987 924.32 170.849 923.718 170.916C923.117 170.982 922.555 171.248 922.122 171.671C920.589 173.016 919.129 174.443 917.75 175.946C916.075 177.824 914.642 179.294 912.397 176.482C911.299 175.108 909.58 175.301 908.328 176.58C907.049 177.884 907.18 179.383 908.375 180.687C909.695 182.128 911.118 183.473 912.51 184.846C914.173 186.487 915.803 186.324 917.399 184.727C920.162 181.961 922.928 179.198 925.697 176.437C926.438 175.699 927.073 174.916 926.958 173.796C926.976 173.278 926.842 172.766 926.573 172.323C926.303 171.881 925.909 171.527 925.44 171.306Z" fill="white"/>
</g>
<defs>
<clipPath id="clip0_201_7">
<rect width="222.222" height="250" fill="white" transform="translate(50 50)"/>
</clipPath>
<clipPath id="clip1_201_7">
<rect width="400" height="250" fill="white" transform="translate(322 50)"/>
</clipPath>
<clipPath id="clip2_201_7">
<rect width="250" height="250" fill="white" transform="translate(796 50)"/>
</clipPath>
</defs>
</svg>
