<svg width="1121" height="418" viewBox="0 0 1121 418" fill="none" xmlns="http://www.w3.org/2000/svg">
<rect width="1121" height="418" fill="white"/>
<path d="M65.5181 334.98V329.909H89.4102V334.98H80.5039V359H74.4244V334.98H65.5181ZM100.01 359.426C97.766 359.426 95.8342 358.972 94.2148 358.062C92.605 357.144 91.3645 355.847 90.4933 354.17C89.622 352.485 89.1864 350.491 89.1864 348.19C89.1864 345.946 89.622 343.976 90.4933 342.281C91.3645 340.586 92.5908 339.265 94.1722 338.318C95.7631 337.371 97.6287 336.898 99.7688 336.898C101.208 336.898 102.548 337.13 103.789 337.594C105.039 338.048 106.128 338.735 107.056 339.653C107.993 340.572 108.722 341.727 109.243 343.119C109.764 344.502 110.025 346.121 110.025 347.977V349.639H91.6012V345.889H104.328C104.328 345.018 104.139 344.246 103.76 343.574C103.382 342.902 102.856 342.376 102.184 341.997C101.521 341.609 100.749 341.415 99.8683 341.415C98.9497 341.415 98.1353 341.628 97.4251 342.054C96.7243 342.471 96.1751 343.034 95.7773 343.744C95.3796 344.445 95.176 345.226 95.1665 346.088V349.653C95.1665 350.733 95.3654 351.666 95.7631 352.452C96.1703 353.238 96.7433 353.844 97.4819 354.27C98.2205 354.696 99.0965 354.909 100.11 354.909C100.782 354.909 101.398 354.814 101.956 354.625C102.515 354.436 102.993 354.152 103.391 353.773C103.789 353.394 104.092 352.93 104.3 352.381L109.897 352.75C109.613 354.095 109.03 355.269 108.15 356.273C107.278 357.267 106.151 358.044 104.769 358.602C103.396 359.152 101.81 359.426 100.01 359.426ZM113.973 359V337.182H119.84V340.989H120.067C120.465 339.634 121.132 338.612 122.07 337.92C123.007 337.22 124.087 336.869 125.309 336.869C125.612 336.869 125.938 336.888 126.289 336.926C126.639 336.964 126.947 337.016 127.212 337.082V342.452C126.928 342.366 126.535 342.291 126.033 342.224C125.531 342.158 125.072 342.125 124.655 342.125C123.765 342.125 122.97 342.319 122.269 342.707C121.578 343.086 121.028 343.616 120.621 344.298C120.223 344.98 120.025 345.766 120.025 346.656V359H113.973ZM130.341 359V337.182H136.207V340.989H136.434C136.832 339.634 137.5 338.612 138.437 337.92C139.375 337.22 140.454 336.869 141.676 336.869C141.979 336.869 142.306 336.888 142.656 336.926C143.006 336.964 143.314 337.016 143.579 337.082V342.452C143.295 342.366 142.902 342.291 142.4 342.224C141.898 342.158 141.439 342.125 141.022 342.125C140.132 342.125 139.337 342.319 138.636 342.707C137.945 343.086 137.395 343.616 136.988 344.298C136.591 344.98 136.392 345.766 136.392 346.656V359H130.341ZM152.304 359.412C150.912 359.412 149.672 359.17 148.583 358.688C147.494 358.195 146.632 357.471 145.998 356.514C145.373 355.548 145.06 354.346 145.06 352.906C145.06 351.694 145.283 350.676 145.728 349.852C146.173 349.028 146.779 348.366 147.546 347.864C148.313 347.362 149.184 346.983 150.159 346.727C151.144 346.472 152.176 346.292 153.256 346.188C154.525 346.055 155.548 345.932 156.324 345.818C157.101 345.695 157.664 345.515 158.015 345.278C158.365 345.042 158.54 344.691 158.54 344.227V344.142C158.54 343.242 158.256 342.546 157.688 342.054C157.129 341.562 156.334 341.315 155.301 341.315C154.212 341.315 153.346 341.557 152.702 342.04C152.058 342.513 151.632 343.11 151.424 343.83L145.827 343.375C146.111 342.049 146.67 340.903 147.503 339.938C148.337 338.962 149.411 338.214 150.728 337.693C152.053 337.163 153.587 336.898 155.33 336.898C156.542 336.898 157.702 337.04 158.81 337.324C159.927 337.608 160.917 338.048 161.779 338.645C162.65 339.241 163.337 340.009 163.838 340.946C164.34 341.874 164.591 342.987 164.591 344.284V359H158.853V355.974H158.682C158.332 356.656 157.863 357.258 157.276 357.778C156.689 358.29 155.983 358.692 155.159 358.986C154.336 359.27 153.384 359.412 152.304 359.412ZM154.037 355.236C154.927 355.236 155.713 355.061 156.395 354.71C157.077 354.35 157.612 353.867 158 353.261C158.389 352.655 158.583 351.969 158.583 351.202V348.886C158.393 349.009 158.133 349.123 157.801 349.227C157.48 349.322 157.115 349.412 156.708 349.497C156.301 349.573 155.893 349.644 155.486 349.71C155.079 349.767 154.71 349.819 154.378 349.866C153.668 349.971 153.048 350.136 152.517 350.364C151.987 350.591 151.575 350.899 151.282 351.287C150.988 351.666 150.841 352.139 150.841 352.707C150.841 353.531 151.14 354.161 151.736 354.597C152.342 355.023 153.109 355.236 154.037 355.236ZM181.019 337.182V341.727H167.553V337.182H181.019ZM170.635 359V335.605C170.635 334.024 170.943 332.712 171.559 331.67C172.184 330.629 173.036 329.848 174.115 329.327C175.195 328.806 176.421 328.545 177.794 328.545C178.722 328.545 179.57 328.616 180.337 328.759C181.114 328.901 181.691 329.028 182.07 329.142L180.99 333.688C180.754 333.612 180.46 333.541 180.11 333.474C179.769 333.408 179.418 333.375 179.059 333.375C178.168 333.375 177.548 333.583 177.198 334C176.847 334.407 176.672 334.98 176.672 335.719V359H170.635ZM193.792 359.426C191.586 359.426 189.678 358.957 188.068 358.02C186.467 357.073 185.232 355.757 184.36 354.071C183.489 352.376 183.054 350.411 183.054 348.176C183.054 345.922 183.489 343.953 184.36 342.267C185.232 340.572 186.467 339.256 188.068 338.318C189.678 337.371 191.586 336.898 193.792 336.898C195.999 336.898 197.902 337.371 199.502 338.318C201.112 339.256 202.353 340.572 203.224 342.267C204.095 343.953 204.531 345.922 204.531 348.176C204.531 350.411 204.095 352.376 203.224 354.071C202.353 355.757 201.112 357.073 199.502 358.02C197.902 358.957 195.999 359.426 193.792 359.426ZM193.821 354.739C194.824 354.739 195.663 354.455 196.335 353.886C197.007 353.309 197.514 352.523 197.855 351.528C198.205 350.534 198.38 349.402 198.38 348.134C198.38 346.865 198.205 345.733 197.855 344.739C197.514 343.744 197.007 342.958 196.335 342.381C195.663 341.803 194.824 341.514 193.821 341.514C192.807 341.514 191.955 341.803 191.264 342.381C190.582 342.958 190.066 343.744 189.716 344.739C189.375 345.733 189.204 346.865 189.204 348.134C189.204 349.402 189.375 350.534 189.716 351.528C190.066 352.523 190.582 353.309 191.264 353.886C191.955 354.455 192.807 354.739 193.821 354.739ZM208.466 359V337.182H214.332V340.989H214.559C214.957 339.634 215.625 338.612 216.562 337.92C217.5 337.22 218.579 336.869 219.801 336.869C220.104 336.869 220.431 336.888 220.781 336.926C221.131 336.964 221.439 337.016 221.704 337.082V342.452C221.42 342.366 221.027 342.291 220.525 342.224C220.023 342.158 219.564 342.125 219.147 342.125C218.257 342.125 217.462 342.319 216.761 342.707C216.07 343.086 215.52 343.616 215.113 344.298C214.716 344.98 214.517 345.766 214.517 346.656V359H208.466ZM224.833 359V337.182H230.6V341.031H230.855C231.31 339.753 232.068 338.744 233.128 338.006C234.189 337.267 235.458 336.898 236.935 336.898C238.431 336.898 239.705 337.272 240.756 338.02C241.807 338.759 242.508 339.762 242.858 341.031H243.086C243.531 339.781 244.336 338.782 245.5 338.034C246.675 337.277 248.062 336.898 249.662 336.898C251.698 336.898 253.351 337.546 254.62 338.844C255.898 340.132 256.537 341.959 256.537 344.327V359H250.5V345.52C250.5 344.308 250.178 343.399 249.534 342.793C248.891 342.187 248.086 341.884 247.12 341.884C246.021 341.884 245.164 342.234 244.549 342.935C243.933 343.626 243.625 344.54 243.625 345.676V359H237.759V345.392C237.759 344.322 237.451 343.47 236.836 342.835C236.23 342.201 235.429 341.884 234.435 341.884C233.763 341.884 233.157 342.054 232.617 342.395C232.087 342.726 231.665 343.195 231.353 343.801C231.04 344.398 230.884 345.098 230.884 345.903V359H224.833Z" fill="#6042EA"/>
<g clip-path="url(#clip0_201_7)">
<path d="M116.667 166.667L50 127.778V50L116.667 88.8889V166.667Z" fill="#6042EA"/>
<path d="M194.444 211.111L127.778 172.222V94.4445L194.444 133.333V211.111Z" fill="#6042EA"/>
<path d="M205.556 211.111L272.222 172.222V94.4445L205.556 133.333V211.111Z" fill="#4040B2"/>
<path d="M194.444 300L127.778 261.111V183.333L194.444 222.222V300Z" fill="#6042EA"/>
</g>
<path d="M434.777 359H428.186L438.229 329.909H446.155L456.183 359H449.592L442.305 336.557H442.078L434.777 359ZM434.365 347.565H449.933V352.366H434.365V347.565ZM463.303 359L454.979 329.909H461.698L466.513 350.122H466.755L472.067 329.909H477.82L483.119 350.165H483.374L488.19 329.909H494.908L486.585 359H480.59L475.05 339.98H474.823L469.298 359H463.303ZM513.708 338.276C513.594 337.13 513.107 336.24 512.245 335.605C511.383 334.971 510.214 334.653 508.737 334.653C507.733 334.653 506.885 334.795 506.194 335.08C505.503 335.354 504.972 335.738 504.603 336.23C504.243 336.723 504.063 337.281 504.063 337.906C504.044 338.427 504.153 338.882 504.39 339.27C504.636 339.658 504.972 339.994 505.398 340.278C505.825 340.553 506.317 340.795 506.876 341.003C507.434 341.202 508.031 341.372 508.665 341.514L511.279 342.139C512.548 342.423 513.713 342.802 514.773 343.276C515.834 343.749 516.753 344.331 517.529 345.023C518.306 345.714 518.907 346.528 519.333 347.466C519.769 348.403 519.991 349.478 520.001 350.69C519.991 352.471 519.537 354.014 518.637 355.321C517.747 356.618 516.459 357.627 514.773 358.347C513.097 359.057 511.076 359.412 508.708 359.412C506.36 359.412 504.314 359.052 502.572 358.332C500.839 357.613 499.485 356.547 498.509 355.136C497.543 353.716 497.037 351.959 496.989 349.866H502.941C503.007 350.842 503.287 351.656 503.779 352.31C504.281 352.954 504.949 353.441 505.782 353.773C506.625 354.095 507.576 354.256 508.637 354.256C509.679 354.256 510.583 354.104 511.35 353.801C512.127 353.498 512.728 353.077 513.154 352.537C513.58 351.997 513.793 351.377 513.793 350.676C513.793 350.023 513.599 349.473 513.211 349.028C512.832 348.583 512.273 348.205 511.535 347.892C510.806 347.58 509.911 347.295 508.85 347.04L505.683 346.244C503.23 345.648 501.293 344.715 499.873 343.446C498.452 342.177 497.747 340.468 497.756 338.318C497.747 336.557 498.216 335.018 499.163 333.702C500.119 332.385 501.431 331.358 503.097 330.619C504.764 329.881 506.658 329.511 508.779 329.511C510.938 329.511 512.823 329.881 514.433 330.619C516.052 331.358 517.311 332.385 518.211 333.702C519.111 335.018 519.575 336.543 519.603 338.276H513.708ZM538.651 329.909L545.683 352.011H545.952L552.998 329.909H559.816L549.788 359H541.862L531.819 329.909H538.651ZM563.317 359V329.909H574.795C577.001 329.909 578.881 330.33 580.434 331.173C581.987 332.007 583.171 333.167 583.985 334.653C584.809 336.131 585.221 337.835 585.221 339.767C585.221 341.699 584.804 343.403 583.971 344.881C583.138 346.358 581.93 347.509 580.349 348.332C578.777 349.156 576.873 349.568 574.638 349.568H567.323V344.639H573.644C574.828 344.639 575.803 344.436 576.57 344.028C577.347 343.612 577.924 343.039 578.303 342.31C578.692 341.571 578.886 340.723 578.886 339.767C578.886 338.801 578.692 337.958 578.303 337.239C577.924 336.509 577.347 335.946 576.57 335.548C575.794 335.141 574.809 334.938 573.616 334.938H569.468V359H563.317ZM614.884 340.094H608.662C608.548 339.289 608.316 338.574 607.966 337.949C607.616 337.314 607.166 336.775 606.616 336.33C606.067 335.884 605.433 335.544 604.713 335.307C604.003 335.07 603.231 334.952 602.398 334.952C600.892 334.952 599.58 335.326 598.463 336.074C597.346 336.812 596.479 337.892 595.864 339.312C595.248 340.723 594.94 342.437 594.94 344.455C594.94 346.528 595.248 348.271 595.864 349.682C596.489 351.093 597.36 352.158 598.477 352.878C599.595 353.598 600.887 353.957 602.355 353.957C603.179 353.957 603.941 353.848 604.642 353.631C605.352 353.413 605.982 353.096 606.531 352.679C607.08 352.253 607.535 351.737 607.895 351.131C608.264 350.525 608.52 349.833 608.662 349.057L614.884 349.085C614.723 350.42 614.32 351.708 613.676 352.949C613.042 354.18 612.185 355.283 611.105 356.259C610.035 357.224 608.757 357.991 607.27 358.56C605.793 359.118 604.121 359.398 602.256 359.398C599.661 359.398 597.341 358.811 595.295 357.636C593.259 356.462 591.65 354.762 590.466 352.537C589.292 350.312 588.705 347.617 588.705 344.455C588.705 341.282 589.301 338.583 590.494 336.358C591.688 334.133 593.307 332.437 595.352 331.273C597.398 330.098 599.699 329.511 602.256 329.511C603.941 329.511 605.504 329.748 606.943 330.222C608.392 330.695 609.675 331.386 610.793 332.295C611.91 333.195 612.819 334.298 613.52 335.605C614.23 336.912 614.685 338.408 614.884 340.094Z" fill="#F68633"/>
<g clip-path="url(#clip1_201_7)">
<path d="M373.823 155.461C373.823 154.449 373.823 153.503 373.823 152.492C373.788 129.016 381.802 106.24 396.523 87.9777C411.244 69.7153 431.779 57.0746 454.69 52.1718C477.601 47.269 501.497 50.4017 522.378 61.0455C543.259 71.6892 559.858 89.198 569.396 110.641C577.056 105.41 585.978 102.335 595.229 101.738C604.479 101.14 613.721 103.042 621.988 107.244C630.255 111.446 637.246 117.795 642.229 125.628C647.213 133.461 650.007 142.49 650.32 151.775C690.652 155.232 721.935 194.442 721.935 225.659V232.444C721.935 266.043 685.704 300 641.043 300H402.892C358.23 300 322 266.043 322 232.444V225.692C322 199.824 343.549 164.17 373.823 155.493V155.461Z" fill="#F68633"/>
<path d="M426.167 168.215H442.085L458.003 243.241H458.23L475.092 168.215H491.271L467.443 262.356H448.367L426.167 168.215ZM500.646 168.215H530.398C548.465 168.215 556.44 179.567 556.44 195.648C556.44 212.546 546.674 223.473 528.934 223.473H515.815V262.389H500.809V168.215H500.646ZM515.783 212.122H526.46C534.435 212.122 541.434 207.783 541.434 195.812C541.434 185.667 537.397 179.502 525.353 179.502H515.75V212.122H515.783ZM626.98 228.627V230.585C626.98 247.612 620.145 264.216 598.042 264.216C574.344 264.216 566.987 248.917 566.987 215.286C566.987 181.654 574.376 166.356 598.172 166.356C624.897 166.356 626.46 186.123 626.46 195.909V197.638H611.486V196.073C611.486 187.363 608.849 177.349 598.042 177.74C587.234 178.132 581.993 184.59 581.993 214.927C581.993 245.264 587.007 252.897 598.042 252.897C610.542 252.897 612.006 238.903 612.006 230.063V228.432H626.98V228.627Z" fill="white"/>
</g>
<path d="M792.904 339.312C792.705 338.621 792.426 338.01 792.066 337.48C791.706 336.94 791.266 336.486 790.745 336.116C790.234 335.738 789.647 335.449 788.984 335.25C788.33 335.051 787.606 334.952 786.81 334.952C785.324 334.952 784.017 335.321 782.89 336.06C781.772 336.798 780.901 337.873 780.276 339.284C779.651 340.686 779.339 342.4 779.339 344.426C779.339 346.453 779.647 348.176 780.262 349.597C780.878 351.017 781.749 352.101 782.876 352.849C784.003 353.588 785.333 353.957 786.867 353.957C788.259 353.957 789.448 353.711 790.433 353.219C791.427 352.717 792.184 352.011 792.705 351.102C793.236 350.193 793.501 349.118 793.501 347.878L794.751 348.062H787.251V343.432H799.424V347.097C799.424 349.653 798.884 351.85 797.805 353.688C796.725 355.515 795.238 356.926 793.344 357.92C791.451 358.905 789.282 359.398 786.839 359.398C784.112 359.398 781.716 358.796 779.651 357.594C777.587 356.382 775.977 354.663 774.822 352.438C773.676 350.203 773.103 347.551 773.103 344.483C773.103 342.125 773.444 340.023 774.126 338.176C774.817 336.32 775.783 334.748 777.023 333.46C778.264 332.172 779.708 331.192 781.356 330.52C783.004 329.848 784.789 329.511 786.711 329.511C788.359 329.511 789.893 329.753 791.313 330.236C792.734 330.709 793.993 331.382 795.092 332.253C796.2 333.124 797.104 334.161 797.805 335.364C798.505 336.557 798.955 337.873 799.154 339.312H792.904ZM805.298 359V337.182H811.349V359H805.298ZM808.337 334.369C807.438 334.369 806.666 334.071 806.022 333.474C805.388 332.868 805.07 332.144 805.07 331.301C805.07 330.468 805.388 329.753 806.022 329.156C806.666 328.55 807.438 328.247 808.337 328.247C809.237 328.247 810.004 328.55 810.638 329.156C811.282 329.753 811.604 330.468 811.604 331.301C811.604 332.144 811.282 332.868 810.638 333.474C810.004 334.071 809.237 334.369 808.337 334.369ZM827.801 337.182V341.727H814.662V337.182H827.801ZM817.645 331.955H823.696V352.295C823.696 352.854 823.781 353.29 823.952 353.602C824.122 353.905 824.359 354.118 824.662 354.241C824.974 354.365 825.334 354.426 825.741 354.426C826.026 354.426 826.31 354.402 826.594 354.355C826.878 354.298 827.096 354.256 827.247 354.227L828.199 358.73C827.896 358.825 827.47 358.934 826.92 359.057C826.371 359.189 825.704 359.27 824.918 359.298C823.459 359.355 822.181 359.161 821.082 358.716C819.993 358.271 819.146 357.58 818.54 356.642C817.934 355.705 817.635 354.521 817.645 353.091V331.955ZM832.325 359V329.909H838.476V341.912H850.962V329.909H857.098V359H850.962V346.983H838.476V359H832.325ZM876.047 349.71V337.182H882.098V359H876.288V355.037H876.061C875.569 356.315 874.75 357.343 873.604 358.119C872.467 358.896 871.08 359.284 869.442 359.284C867.983 359.284 866.7 358.953 865.592 358.29C864.484 357.627 863.618 356.685 862.993 355.463C862.377 354.241 862.065 352.778 862.055 351.074V337.182H868.107V349.994C868.116 351.282 868.462 352.3 869.143 353.048C869.825 353.796 870.739 354.17 871.885 354.17C872.614 354.17 873.296 354.005 873.93 353.673C874.565 353.332 875.076 352.83 875.464 352.168C875.862 351.505 876.056 350.686 876.047 349.71ZM887.052 359V329.909H893.103V340.847H893.288C893.553 340.259 893.936 339.663 894.438 339.057C894.95 338.441 895.612 337.93 896.427 337.523C897.251 337.106 898.273 336.898 899.495 336.898C901.086 336.898 902.554 337.314 903.898 338.148C905.243 338.972 906.318 340.217 907.123 341.884C907.928 343.541 908.33 345.619 908.33 348.119C908.33 350.553 907.937 352.608 907.151 354.284C906.375 355.951 905.314 357.215 903.969 358.077C902.634 358.929 901.138 359.355 899.481 359.355C898.307 359.355 897.308 359.161 896.484 358.773C895.669 358.384 895.002 357.897 894.481 357.31C893.96 356.713 893.562 356.112 893.288 355.506H893.018V359H887.052ZM892.975 348.091C892.975 349.388 893.155 350.52 893.515 351.486C893.875 352.452 894.396 353.205 895.077 353.744C895.759 354.275 896.588 354.54 897.563 354.54C898.548 354.54 899.381 354.27 900.063 353.73C900.745 353.181 901.261 352.423 901.612 351.457C901.971 350.482 902.151 349.36 902.151 348.091C902.151 346.831 901.976 345.723 901.626 344.767C901.275 343.811 900.759 343.062 900.077 342.523C899.396 341.983 898.558 341.713 897.563 341.713C896.578 341.713 895.745 341.973 895.063 342.494C894.391 343.015 893.875 343.754 893.515 344.71C893.155 345.667 892.975 346.794 892.975 348.091ZM926.754 359H920.163L930.205 329.909H938.131L948.16 359H941.569L934.282 336.557H934.055L926.754 359ZM926.342 347.565H941.91V352.366H926.342V347.565ZM960.39 359.426C958.155 359.426 956.233 358.953 954.623 358.006C953.022 357.049 951.791 355.723 950.93 354.028C950.077 352.333 949.651 350.383 949.651 348.176C949.651 345.941 950.082 343.981 950.944 342.295C951.815 340.6 953.051 339.279 954.651 338.332C956.252 337.376 958.155 336.898 960.362 336.898C962.265 336.898 963.932 337.243 965.362 337.935C966.791 338.626 967.923 339.597 968.756 340.847C969.59 342.097 970.049 343.564 970.134 345.25H964.424C964.263 344.161 963.837 343.285 963.146 342.622C962.464 341.95 961.569 341.614 960.461 341.614C959.523 341.614 958.704 341.869 958.004 342.381C957.312 342.883 956.772 343.616 956.384 344.582C955.996 345.548 955.802 346.718 955.802 348.091C955.802 349.483 955.991 350.667 956.37 351.642C956.758 352.617 957.303 353.361 958.004 353.872C958.704 354.384 959.523 354.639 960.461 354.639C961.152 354.639 961.772 354.497 962.322 354.213C962.88 353.929 963.34 353.517 963.7 352.977C964.069 352.428 964.31 351.77 964.424 351.003H970.134C970.04 352.67 969.585 354.137 968.771 355.406C967.966 356.666 966.853 357.651 965.433 358.361C964.012 359.071 962.331 359.426 960.39 359.426ZM985.614 337.182V341.727H972.474V337.182H985.614ZM975.457 331.955H981.509V352.295C981.509 352.854 981.594 353.29 981.764 353.602C981.935 353.905 982.171 354.118 982.474 354.241C982.787 354.365 983.147 354.426 983.554 354.426C983.838 354.426 984.122 354.402 984.406 354.355C984.69 354.298 984.908 354.256 985.06 354.227L986.011 358.73C985.708 358.825 985.282 358.934 984.733 359.057C984.184 359.189 983.516 359.27 982.73 359.298C981.272 359.355 979.993 359.161 978.895 358.716C977.806 358.271 976.958 357.58 976.352 356.642C975.746 355.705 975.448 354.521 975.457 353.091V331.955ZM989.555 359V337.182H995.607V359H989.555ZM992.595 334.369C991.696 334.369 990.924 334.071 990.28 333.474C989.645 332.868 989.328 332.144 989.328 331.301C989.328 330.468 989.645 329.753 990.28 329.156C990.924 328.55 991.696 328.247 992.595 328.247C993.495 328.247 994.262 328.55 994.896 329.156C995.54 329.753 995.862 330.468 995.862 331.301C995.862 332.144 995.54 332.868 994.896 333.474C994.262 334.071 993.495 334.369 992.595 334.369ZM1010.31 359.426C1008.11 359.426 1006.2 358.957 1004.59 358.02C1002.99 357.073 1001.75 355.757 1000.88 354.071C1000.01 352.376 999.573 350.411 999.573 348.176C999.573 345.922 1000.01 343.953 1000.88 342.267C1001.75 340.572 1002.99 339.256 1004.59 338.318C1006.2 337.371 1008.11 336.898 1010.31 336.898C1012.52 336.898 1014.42 337.371 1016.02 338.318C1017.63 339.256 1018.87 340.572 1019.74 342.267C1020.61 343.953 1021.05 345.922 1021.05 348.176C1021.05 350.411 1020.61 352.376 1019.74 354.071C1018.87 355.757 1017.63 357.073 1016.02 358.02C1014.42 358.957 1012.52 359.426 1010.31 359.426ZM1010.34 354.739C1011.34 354.739 1012.18 354.455 1012.85 353.886C1013.53 353.309 1014.03 352.523 1014.37 351.528C1014.72 350.534 1014.9 349.402 1014.9 348.134C1014.9 346.865 1014.72 345.733 1014.37 344.739C1014.03 343.744 1013.53 342.958 1012.85 342.381C1012.18 341.803 1011.34 341.514 1010.34 341.514C1009.33 341.514 1008.47 341.803 1007.78 342.381C1007.1 342.958 1006.59 343.744 1006.24 344.739C1005.89 345.733 1005.72 346.865 1005.72 348.134C1005.72 349.402 1005.89 350.534 1006.24 351.528C1006.59 352.523 1007.1 353.309 1007.78 353.886C1008.47 354.455 1009.33 354.739 1010.34 354.739ZM1031.04 346.386V359H1024.99V337.182H1030.75V341.031H1031.01C1031.49 339.762 1032.3 338.759 1033.44 338.02C1034.57 337.272 1035.95 336.898 1037.57 336.898C1039.09 336.898 1040.41 337.229 1041.53 337.892C1042.66 338.555 1043.54 339.502 1044.16 340.733C1044.79 341.955 1045.1 343.413 1045.1 345.108V359H1039.05V346.188C1039.06 344.852 1038.72 343.811 1038.02 343.062C1037.33 342.305 1036.38 341.926 1035.17 341.926C1034.36 341.926 1033.64 342.101 1033.01 342.452C1032.4 342.802 1031.91 343.313 1031.56 343.986C1031.22 344.649 1031.05 345.449 1031.04 346.386ZM1068.02 343.403L1062.48 343.744C1062.39 343.271 1062.18 342.845 1061.87 342.466C1061.56 342.078 1061.15 341.77 1060.63 341.543C1060.13 341.306 1059.53 341.188 1058.83 341.188C1057.89 341.188 1057.1 341.386 1056.46 341.784C1055.81 342.172 1055.49 342.693 1055.49 343.347C1055.49 343.867 1055.7 344.308 1056.12 344.668C1056.53 345.027 1057.25 345.316 1058.26 345.534L1062.21 346.33C1064.33 346.765 1065.91 347.466 1066.96 348.432C1068 349.398 1068.52 350.667 1068.52 352.239C1068.52 353.669 1068.1 354.923 1067.25 356.003C1066.42 357.082 1065.28 357.925 1063.82 358.531C1062.37 359.128 1060.7 359.426 1058.8 359.426C1055.91 359.426 1053.61 358.825 1051.9 357.622C1050.19 356.41 1049.2 354.762 1048.9 352.679L1054.85 352.366C1055.03 353.247 1055.47 353.92 1056.16 354.384C1056.85 354.838 1057.74 355.065 1058.82 355.065C1059.88 355.065 1060.73 354.862 1061.37 354.455C1062.03 354.038 1062.36 353.503 1062.37 352.849C1062.36 352.3 1062.13 351.85 1061.67 351.5C1061.22 351.14 1060.52 350.866 1059.57 350.676L1055.79 349.923C1053.66 349.497 1052.07 348.759 1051.03 347.707C1050 346.656 1049.48 345.316 1049.48 343.688C1049.48 342.286 1049.86 341.079 1050.62 340.065C1051.39 339.052 1052.46 338.271 1053.85 337.722C1055.24 337.172 1056.87 336.898 1058.73 336.898C1061.49 336.898 1063.66 337.48 1065.24 338.645C1066.83 339.81 1067.76 341.396 1068.02 343.403Z" fill="#2671E5"/>
<g clip-path="url(#clip2_201_7)">
<path d="M1021 50H821C807.193 50 796 61.1929 796 75V275C796 288.807 807.193 300 821 300H1021C1034.81 300 1046 288.807 1046 275V75C1046 61.1929 1034.81 50 1021 50Z" fill="#2671E5"/>
<path d="M913.44 188.661C912.456 188.661 911.511 188.27 910.814 187.574L905.271 182.046C904.915 181.703 904.631 181.293 904.436 180.84C904.24 180.386 904.137 179.898 904.132 179.404C904.127 178.91 904.22 178.42 904.407 177.963C904.593 177.505 904.869 177.09 905.217 176.74C905.566 176.39 905.981 176.113 906.438 175.926C906.895 175.738 907.385 175.643 907.879 175.647C908.373 175.65 908.861 175.752 909.315 175.946C909.769 176.141 910.18 176.423 910.524 176.778L913.44 179.688L922.228 170.908C922.925 170.209 923.872 169.816 924.859 169.816C925.846 169.815 926.793 170.206 927.492 170.904C928.19 171.602 928.583 172.548 928.584 173.535C928.585 174.523 928.193 175.47 927.496 176.168L916.074 187.574C915.374 188.269 914.427 188.659 913.44 188.661ZM983.031 187.567L994.445 176.168C995.123 175.467 995.498 174.527 995.489 173.551C995.481 172.576 995.089 171.643 994.4 170.953C993.71 170.263 992.777 169.872 991.801 169.864C990.826 169.855 989.886 170.23 989.185 170.908L980.397 179.688L977.481 176.778C977.137 176.423 976.726 176.141 976.272 175.946C975.818 175.752 975.329 175.65 974.836 175.647C974.342 175.643 973.852 175.738 973.395 175.926C972.938 176.113 972.523 176.39 972.174 176.74C971.825 177.09 971.55 177.505 971.363 177.963C971.177 178.42 971.084 178.91 971.089 179.404C971.093 179.898 971.197 180.386 971.392 180.84C971.588 181.293 971.872 181.703 972.228 182.046L977.778 187.574C978.123 187.921 978.532 188.196 978.983 188.383C979.434 188.57 979.918 188.666 980.406 188.666C980.895 188.665 981.378 188.567 981.829 188.379C982.279 188.19 982.688 187.914 983.031 187.567ZM865.397 141.161L884.423 129.368C885.497 128.703 886.384 127.776 887.001 126.673C887.618 125.571 887.944 124.33 887.948 123.067C887.952 121.804 887.635 120.56 887.026 119.453C886.417 118.347 885.537 117.413 884.467 116.741L865.442 104.762C864.316 104.053 863.021 103.659 861.691 103.62C860.362 103.582 859.046 103.9 857.881 104.543C856.716 105.186 855.745 106.129 855.069 107.275C854.393 108.42 854.036 109.726 854.036 111.057V134.836C854.038 136.161 854.394 137.462 855.066 138.604C855.738 139.745 856.703 140.687 857.861 141.332C859.019 141.976 860.328 142.3 861.652 142.27C862.977 142.24 864.27 141.857 865.397 141.161ZM880.502 123.036L861.476 134.836V111.057L880.502 123.036ZM1010.29 178.72C1010.29 193.08 998.604 204.762 984.244 204.762C977.988 204.75 971.946 202.489 967.219 198.39C962.493 194.292 959.398 188.631 958.5 182.44H943.024C942.126 188.631 939.031 194.292 934.304 198.39C929.578 202.489 923.535 204.75 917.28 204.762C911.024 204.752 904.98 202.491 900.254 198.392C895.527 194.294 892.432 188.632 891.536 182.44H887.384C880.152 182.44 873.619 179.472 868.917 174.688V212.202C868.917 224.509 878.932 234.524 891.238 234.524H891.536C893.351 221.927 904.185 212.202 917.28 212.202C931.64 212.202 943.321 223.884 943.321 238.244C943.321 252.604 931.64 264.286 917.28 264.286C911.024 264.275 904.98 262.014 900.254 257.916C895.527 253.818 892.432 248.156 891.536 241.964H891.238C874.824 241.964 861.476 228.616 861.476 212.202V159.368C853.08 157.642 845.535 153.075 840.113 146.435C834.692 139.795 831.725 131.489 831.714 122.917C831.714 102.403 848.403 85.7143 868.917 85.7143C889.43 85.7143 906.119 102.403 906.119 122.917C906.106 132.716 902.231 142.116 895.333 149.077C888.436 156.038 879.073 160 869.274 160.104C870.101 164.3 872.358 168.079 875.661 170.795C878.964 173.512 883.107 174.998 887.384 175H891.536C893.351 162.403 904.185 152.679 917.28 152.679C923.536 152.689 929.579 154.95 934.306 159.048C939.033 163.147 942.127 168.809 943.024 175H958.5C959.398 168.809 962.493 163.148 967.219 159.05C971.946 154.952 977.988 152.691 984.244 152.679C998.604 152.679 1010.29 164.36 1010.29 178.72ZM898.679 238.244C898.679 248.497 907.027 256.845 917.28 256.845C927.533 256.845 935.881 248.497 935.881 238.244C935.881 227.991 927.533 219.643 917.28 219.643C907.027 219.643 898.679 227.991 898.679 238.244ZM868.917 152.679C885.33 152.679 898.679 139.33 898.679 122.917C898.679 106.503 885.33 93.1548 868.917 93.1548C852.503 93.1548 839.155 106.503 839.155 122.917C839.155 139.33 852.503 152.679 868.917 152.679ZM935.881 178.72C935.881 168.467 927.533 160.119 917.28 160.119C907.027 160.119 898.679 168.467 898.679 178.72C898.679 188.973 907.027 197.321 917.28 197.321C927.533 197.321 935.881 188.973 935.881 178.72ZM1002.85 178.72C1002.85 168.467 994.497 160.119 984.244 160.119C973.991 160.119 965.643 168.467 965.643 178.72C965.643 188.973 973.991 197.321 984.244 197.321C994.497 197.321 1002.85 188.973 1002.85 178.72ZM906.119 238.244C906.119 239.231 906.511 240.177 907.209 240.875C907.906 241.572 908.853 241.964 909.839 241.964C910.826 241.964 911.772 241.572 912.47 240.875C913.168 240.177 913.56 239.231 913.56 238.244C913.56 237.257 913.168 236.311 912.47 235.613C911.772 234.916 910.826 234.524 909.839 234.524C908.853 234.524 907.906 234.916 907.209 235.613C906.511 236.311 906.119 237.257 906.119 238.244ZM921 238.244C921 239.231 921.392 240.177 922.09 240.875C922.787 241.572 923.734 241.964 924.72 241.964C925.707 241.964 926.653 241.572 927.351 240.875C928.049 240.177 928.44 239.231 928.44 238.244C928.44 237.257 928.049 236.311 927.351 235.613C926.653 234.916 925.707 234.524 924.72 234.524C923.734 234.524 922.787 234.916 922.09 235.613C921.392 236.311 921 237.257 921 238.244ZM1010.29 238.244C1010.29 252.604 998.604 264.286 984.244 264.286C977.986 264.273 971.942 262.01 967.215 257.909C962.488 253.808 959.395 248.143 958.5 241.949C958.448 241.957 958.403 241.987 958.344 241.987L954.579 242.113H954.452C953.493 242.088 952.58 241.694 951.905 241.012C951.229 240.33 950.844 239.413 950.828 238.454C950.813 237.494 951.169 236.566 951.822 235.862C952.475 235.159 953.375 234.736 954.333 234.68L958.098 234.554C958.232 234.539 958.359 234.598 958.485 234.606C959.366 228.397 962.455 222.715 967.186 218.6C971.918 214.485 977.974 212.214 984.244 212.202C998.604 212.202 1010.29 223.884 1010.29 238.244ZM1002.85 238.244C1002.85 227.991 994.497 219.643 984.244 219.643C973.991 219.643 965.643 227.991 965.643 238.244C965.643 248.497 973.991 256.845 984.244 256.845C994.497 256.845 1002.85 248.497 1002.85 238.244Z" fill="white" stroke="white" stroke-width="0.00571429"/>
</g>
<defs>
<clipPath id="clip0_201_7">
<rect width="222.222" height="250" fill="white" transform="translate(50 50)"/>
</clipPath>
<clipPath id="clip1_201_7">
<rect width="400" height="250" fill="white" transform="translate(322 50)"/>
</clipPath>
<clipPath id="clip2_201_7">
<rect width="250" height="250" fill="white" transform="translate(796 50)"/>
</clipPath>
</defs>
</svg>
